<?xml version="1.0" encoding="utf-8"?>
<!-- Uploaded to: SVG Repo, www.svgrepo.com, Generator: SVG Repo Mixer Tools -->
<svg fill="#000000" width="800px" height="800px" viewBox="0 0 32 32" version="1.1" xmlns="http://www.w3.org/2000/svg">
<title>bulb</title>
<path d="M5.344 10.688q0 2.912 1.44 5.344t3.936 3.84q0.512 0.736 1.056 1.344 0 0-0.032 0.064t0 0.064v4.256q0 0.896 0.608 1.536t1.504 0.608h4.288q0.864 0 1.504-0.608t0.608-1.536v-4.256q0-0.032 0-0.064t-0.032-0.064q0.544-0.608 1.088-1.344 2.432-1.376 3.904-3.84t1.472-5.344-1.44-5.344-3.904-3.904-5.344-1.44-5.344 1.44-3.904 3.904-1.408 5.344zM13.856 30.944q0 0.448 0.32 0.768t0.768 0.288h2.112q0.448 0 0.768-0.288t0.32-0.768-0.32-0.768-0.768-0.32h-2.112q-0.448 0-0.768 0.32t-0.32 0.768z"></path>
</svg>